<svg xmlns="http://www.w3.org/2000/svg" xmlns:xlink="http://www.w3.org/1999/xlink" zoomAndPan="magnify" preserveAspectRatio="xMidYMid meet" version="1.2" viewBox="31.32 23.83 747.38 766.55"><defs><clipPath id="df85287c37"><path d="M 31.320312 91.429688 L 778.703125 91.429688 L 778.703125 790.382812 L 31.320312 790.382812 Z M 31.320312 91.429688 "/></clipPath></defs><g id="d7a0095347"><g clip-rule="nonzero" clip-path="url(#df85287c37)"><path style=" stroke:none;fill-rule:nonzero;fill:#ff7400;fill-opacity:1;" d="M 778.625 502.207031 C 777.644531 521.273438 767.691406 538.335938 750.632812 546.867188 C 743.523438 550.183594 736.414062 551.761719 729.433594 551.914062 C 725.941406 551.988281 722.480469 551.707031 719.058594 551.109375 C 713.660156 549.710938 709.394531 548.289062 703.710938 546.867188 C 682.382812 538.335938 665.320312 515.585938 641.152344 517.007812 C 621.246094 518.429688 599.917969 531.226562 597.074219 552.554688 C 595.652344 561.085938 599.917969 568.191406 604.183594 575.300781 C 619.824219 595.207031 641.152344 608.007812 650.6875 630.253906 C 652.402344 634.5625 653.878906 638.90625 655.097656 643.269531 C 661.191406 665.089844 660.832031 687.417969 651.542969 708.992188 C 641.402344 732.523438 621.140625 753.734375 595.929688 760.730469 C 568.191406 768.4375 542.300781 750.621094 523.394531 731.996094 C 520.242188 728.894531 517.210938 725.671875 514.246094 722.164062 C 511.460938 719.253906 509.183594 716.117188 507.300781 712.800781 C 505.421875 709.488281 503.941406 706 502.757812 702.390625 C 493.28125 676.25 506.074219 642.128906 479.0625 622.222656 C 457.734375 608.007812 432.144531 612.273438 412.234375 625.066406 C 408.917969 627.199219 406.351562 629.726562 404.402344 632.554688 C 402.453125 635.410156 401.113281 638.5625 400.25 641.949219 C 399.335938 645.546875 398.917969 649.136719 398.863281 652.722656 C 398.808594 656.324219 399.113281 659.921875 399.652344 663.574219 C 400.5625 667.816406 401.644531 672.144531 402.722656 676.515625 C 403.800781 680.894531 404.890625 685.3125 405.824219 689.734375 C 412.234375 711.800781 410.8125 735.96875 396.597656 757.296875 C 394.394531 760.277344 392.046875 762.972656 389.582031 765.410156 C 363.894531 789.996094 325.507812 795.683594 292.804688 785.730469 C 271.476562 778.621094 250.148438 764.40625 241.617188 741.65625 C 240.199219 738.101562 239.167969 734.46875 238.484375 730.78125 C 235.054688 712.34375 240.148438 692.566406 247.015625 674.601562 C 248.449219 670.617188 249.960938 666.65625 251.496094 662.707031 C 256.097656 650.875 260.90625 639.140625 264.300781 627.503906 C 265.699219 623.554688 267.136719 619.605469 268.582031 615.648438 C 270.027344 611.6875 271.476562 607.722656 272.898438 603.738281 C 274.320312 599.472656 272.898438 593.785156 271.476562 589.519531 C 270.230469 584.367188 268.34375 579.992188 265.925781 576.277344 C 249 550.289062 206.121094 556.839844 176.609375 556.984375 C 172.277344 557.433594 167.960938 558.066406 163.65625 558.804688 C 142.121094 562.488281 120.8125 568.75 98.820312 567.574219 C 72.730469 566.199219 48.839844 552.464844 37.539062 528.308594 C 26.261719 504.234375 30.683594 475.871094 47.863281 455.722656 C 63.53125 437.339844 87.542969 431.40625 110.535156 428.761719 C 133.027344 426.191406 157.128906 427.339844 178.46875 418.769531 C 202.414062 409.144531 212.894531 385.570312 209.863281 360.730469 C 206.308594 331.667969 186.21875 308.777344 166.257812 288.929688 C 145.828125 268.613281 123.417969 249.203125 109.410156 223.566406 C 98.164062 202.949219 91.199219 174.625 105.574219 153.597656 C 113.960938 141.320312 126.007812 137.308594 138.417969 138.335938 C 142.554688 138.683594 146.730469 139.585938 150.828125 140.929688 C 154.886719 143.070312 159.152344 144.492188 163.417969 145.910156 C 166.792969 147.867188 169.859375 150.085938 172.6875 152.519531 C 175.515625 154.949219 178.105469 157.585938 180.523438 160.375 C 203.226562 181.457031 213.179688 241.175781 250.148438 225.535156 C 257.257812 221.269531 258.679688 208.472656 257.257812 198.519531 C 252.992188 177.191406 248.726562 158.707031 250.152344 137.386719 C 251.570312 134.539062 254.414062 131.695312 255.84375 128.929688 C 258.917969 126.246094 262.273438 124.070312 265.808594 122.332031 C 283.480469 113.644531 305.597656 115.816406 319.816406 128.851562 C 327.816406 137.382812 333.214844 147.113281 337.296875 157.46875 C 338.660156 160.917969 339.875 164.4375 340.996094 168.015625 C 349.675781 195.675781 346.832031 231.222656 376.691406 245.441406 C 399.4375 255.390625 423.613281 236.910156 427.542969 214.058594 C 428.324219 209.449219 428.273438 204.671875 427.214844 199.933594 C 426.789062 195.699219 425.984375 191.40625 424.859375 187.140625 C 422.609375 178.605469 419.074219 170.1875 414.722656 162.640625 C 413.039062 154.835938 413.253906 147.175781 415 139.945312 C 418.480469 125.480469 428.066406 112.714844 440.769531 103.890625 C 460.035156 90.511719 484.675781 87.824219 505.832031 98.261719 C 526.605469 108.515625 540.878906 129.527344 546.453125 151.621094 C 549.339844 163.066406 549.980469 174.925781 548.285156 186.582031 C 546.082031 201.683594 539.628906 215.832031 537.566406 230.929688 C 536.269531 240.398438 538.578125 266.816406 554.230469 259.425781 C 565.464844 254.136719 572.1875 241.59375 582.808594 235.082031 C 602.871094 222.785156 630.367188 225.3125 649.421875 238.394531 C 670.664062 252.957031 680.628906 279.175781 679.464844 304.339844 C 679.304688 307.835938 678.898438 311.222656 678.070312 314.585938 C 669.402344 338.679688 634.574219 373.261719 652.671875 394.867188 C 655.257812 397.976562 658.925781 400.824219 663.972656 403.359375 C 690.242188 404.734375 720.082031 408.265625 741.847656 420.183594 C 746.199219 422.566406 750.230469 425.285156 753.847656 428.390625 C 773.378906 443.074219 777.644531 468.664062 778.394531 490.832031 C 778.683594 494.753906 778.792969 498.550781 778.625 502.207031 "/></g><path style=" stroke:none;fill-rule:nonzero;fill:#ff7400;fill-opacity:1;" d="M 129.707031 74.304688 C 124.175781 95.941406 102.144531 109 80.507812 103.46875 C 58.867188 97.9375 45.804688 75.90625 51.335938 54.265625 C 56.871094 32.625 78.902344 19.566406 100.542969 25.097656 C 122.183594 30.628906 135.242188 52.660156 129.707031 74.304688 "/><path style=" stroke:none;fill-rule:nonzero;fill:#ff7400;fill-opacity:1;" d="M 283.882812 63.234375 C 283.882812 74.390625 274.839844 83.433594 263.683594 83.433594 C 252.527344 83.433594 243.480469 74.390625 243.480469 63.234375 C 243.480469 52.078125 252.527344 43.03125 263.683594 43.03125 C 274.839844 43.03125 283.882812 52.078125 283.882812 63.234375 "/><path style=" stroke:none;fill-rule:nonzero;fill:#ff7400;fill-opacity:1;" d="M 224.675781 642.625 C 224.675781 659.792969 210.757812 673.710938 193.589844 673.710938 C 176.421875 673.710938 162.503906 659.792969 162.503906 642.625 C 162.503906 625.457031 176.421875 611.539062 193.589844 611.539062 C 210.757812 611.539062 224.675781 625.457031 224.675781 642.625 "/></g></svg>