<svg xmlns="http://www.w3.org/2000/svg" xmlns:xlink="http://www.w3.org/1999/xlink" zoomAndPan="magnify" preserveAspectRatio="xMidYMid meet" version="1.2" viewBox="1.26 28.52 779.7 171.68"><defs><clipPath id="2667b8a7f9"><path d="M 1.261719 43.660156 L 168.644531 43.660156 L 168.644531 200.199219 L 1.261719 200.199219 Z M 1.261719 43.660156 "/></clipPath></defs><g id="c164b7c169"><g clip-rule="nonzero" clip-path="url(#2667b8a7f9)"><path style=" stroke:none;fill-rule:nonzero;fill:#ff7400;fill-opacity:1;" d="M 168.628906 135.660156 C 168.410156 139.929688 166.179688 143.75 162.359375 145.660156 C 160.765625 146.402344 159.175781 146.757812 157.609375 146.792969 C 156.828125 146.808594 156.054688 146.746094 155.289062 146.609375 C 154.078125 146.296875 153.125 145.980469 151.851562 145.660156 C 147.074219 143.75 143.253906 138.65625 137.839844 138.972656 C 133.382812 139.292969 128.605469 142.15625 127.96875 146.933594 C 127.648438 148.84375 128.605469 150.4375 129.558594 152.03125 C 133.0625 156.488281 137.839844 159.355469 139.976562 164.335938 C 140.359375 165.300781 140.691406 166.273438 140.964844 167.25 C 142.328125 172.136719 142.246094 177.140625 140.167969 181.972656 C 137.894531 187.242188 133.355469 191.992188 127.710938 193.558594 C 121.5 195.285156 115.699219 191.292969 111.464844 187.125 C 110.761719 186.429688 110.082031 185.707031 109.417969 184.921875 C 108.792969 184.269531 108.285156 183.566406 107.863281 182.824219 C 107.441406 182.082031 107.109375 181.300781 106.84375 180.492188 C 104.722656 174.636719 107.585938 166.996094 101.539062 162.539062 C 96.761719 159.355469 91.03125 160.308594 86.570312 163.175781 C 85.828125 163.652344 85.253906 164.21875 84.816406 164.851562 C 84.378906 165.492188 84.082031 166.199219 83.886719 166.957031 C 83.683594 167.761719 83.589844 168.566406 83.574219 169.367188 C 83.5625 170.175781 83.632812 170.980469 83.753906 171.796875 C 83.957031 172.75 84.199219 173.71875 84.441406 174.699219 C 84.683594 175.679688 84.925781 176.667969 85.136719 177.660156 C 86.570312 182.601562 86.253906 188.011719 83.070312 192.789062 C 82.574219 193.457031 82.050781 194.0625 81.496094 194.605469 C 75.746094 200.113281 67.148438 201.386719 59.824219 199.15625 C 55.046875 197.566406 50.269531 194.382812 48.359375 189.285156 C 48.039062 188.492188 47.808594 187.675781 47.65625 186.851562 C 46.890625 182.722656 48.03125 178.292969 49.566406 174.269531 C 49.886719 173.375 50.226562 172.488281 50.570312 171.605469 C 51.601562 168.953125 52.679688 166.328125 53.4375 163.71875 C 53.75 162.835938 54.074219 161.953125 54.398438 161.066406 C 54.722656 160.179688 55.046875 159.289062 55.363281 158.398438 C 55.683594 157.441406 55.363281 156.167969 55.046875 155.214844 C 54.765625 154.058594 54.34375 153.078125 53.800781 152.246094 C 50.011719 146.425781 40.410156 147.894531 33.800781 147.925781 C 32.828125 148.027344 31.863281 148.167969 30.898438 148.335938 C 26.074219 149.160156 21.300781 150.5625 16.378906 150.300781 C 10.535156 149.992188 5.183594 146.914062 2.652344 141.503906 C 0.128906 136.113281 1.117188 129.761719 4.964844 125.25 C 8.472656 121.132812 13.851562 119.800781 19 119.210938 C 24.039062 118.632812 29.4375 118.890625 34.214844 116.972656 C 39.578125 114.816406 41.925781 109.535156 41.246094 103.972656 C 40.449219 97.464844 35.953125 92.339844 31.480469 87.890625 C 26.90625 83.34375 21.886719 78.996094 18.75 73.253906 C 16.230469 68.636719 14.671875 62.292969 17.890625 57.582031 C 19.769531 54.832031 22.464844 53.933594 25.246094 54.164062 C 26.171875 54.242188 27.109375 54.445312 28.023438 54.746094 C 28.933594 55.226562 29.890625 55.542969 30.84375 55.863281 C 31.601562 56.300781 32.289062 56.796875 32.921875 57.34375 C 33.554688 57.886719 34.132812 58.476562 34.675781 59.101562 C 39.761719 63.824219 41.988281 77.199219 50.269531 73.695312 C 51.863281 72.738281 52.179688 69.875 51.863281 67.644531 C 50.90625 62.867188 49.949219 58.726562 50.269531 53.953125 C 50.585938 53.316406 51.222656 52.679688 51.542969 52.058594 C 52.234375 51.457031 52.984375 50.96875 53.777344 50.582031 C 57.734375 48.636719 62.6875 49.121094 65.871094 52.042969 C 67.664062 53.953125 68.875 56.132812 69.789062 58.449219 C 70.09375 59.222656 70.363281 60.011719 70.617188 60.8125 C 72.558594 67.007812 71.921875 74.96875 78.609375 78.152344 C 83.703125 80.382812 89.117188 76.242188 90 71.125 C 90.175781 70.09375 90.164062 69.023438 89.925781 67.960938 C 89.832031 67.011719 89.648438 66.050781 89.398438 65.09375 C 88.894531 63.183594 88.101562 61.300781 87.128906 59.609375 C 86.75 57.859375 86.800781 56.144531 87.191406 54.527344 C 87.96875 51.285156 90.117188 48.425781 92.960938 46.453125 C 97.277344 43.453125 102.792969 42.851562 107.53125 45.191406 C 112.183594 47.488281 115.382812 52.191406 116.628906 57.140625 C 117.277344 59.703125 117.421875 62.359375 117.042969 64.972656 C 116.546875 68.351562 115.101562 71.523438 114.640625 74.902344 C 114.351562 77.023438 114.867188 82.941406 118.371094 81.285156 C 120.886719 80.101562 122.394531 77.292969 124.773438 75.832031 C 129.265625 73.078125 135.425781 73.644531 139.691406 76.574219 C 144.449219 79.835938 146.679688 85.707031 146.421875 91.34375 C 146.382812 92.128906 146.292969 92.886719 146.109375 93.640625 C 144.167969 99.035156 136.367188 106.78125 140.417969 111.617188 C 141 112.316406 141.820312 112.953125 142.949219 113.519531 C 148.832031 113.828125 155.515625 114.621094 160.390625 117.289062 C 161.367188 117.824219 162.269531 118.429688 163.078125 119.125 C 167.453125 122.414062 168.410156 128.148438 168.578125 133.113281 C 168.640625 133.988281 168.664062 134.839844 168.628906 135.660156 "/></g><path style=" stroke:none;fill-rule:nonzero;fill:#ff7400;fill-opacity:1;" d="M 23.296875 39.824219 C 22.054688 44.671875 17.121094 47.59375 12.277344 46.355469 C 7.429688 45.117188 4.503906 40.183594 5.742188 35.335938 C 6.984375 30.488281 11.917969 27.566406 16.761719 28.804688 C 21.609375 30.042969 24.535156 34.976562 23.296875 39.824219 "/><path style=" stroke:none;fill-rule:nonzero;fill:#ff7400;fill-opacity:1;" d="M 57.824219 37.347656 C 57.824219 39.84375 55.800781 41.871094 53.300781 41.871094 C 50.800781 41.871094 48.777344 39.84375 48.777344 37.347656 C 48.777344 34.847656 50.800781 32.820312 53.300781 32.820312 C 55.800781 32.820312 57.824219 34.847656 57.824219 37.347656 "/><path style=" stroke:none;fill-rule:nonzero;fill:#ff7400;fill-opacity:1;" d="M 44.5625 167.109375 C 44.5625 170.953125 41.445312 174.070312 37.601562 174.070312 C 33.757812 174.070312 30.640625 170.953125 30.640625 167.109375 C 30.640625 163.261719 33.757812 160.144531 37.601562 160.144531 C 41.445312 160.144531 44.5625 163.261719 44.5625 167.109375 "/><g style="fill:#ffffff;fill-opacity:1;"><g transform="translate(193.893791, 154.3495)"><path style="stroke:none" d="M 64.78125 -85.6875 L 27.15625 -14.546875 L 62.734375 -14.546875 L 62.734375 0 L 0.5625 0 L 38.296875 -71.140625 L 6.359375 -71.140625 L 6.359375 -85.6875 Z M 64.78125 -85.6875 "/></g></g><g style="fill:#ffffff;fill-opacity:1;"><g transform="translate(259.236333, 154.3495)"><path style="stroke:none" d="M 22.84375 -85.6875 L 22.84375 0 L 6.140625 0 L 6.140625 -85.6875 Z M 22.84375 -85.6875 "/></g></g><g style="fill:#ffffff;fill-opacity:1;"><g transform="translate(288.100687, 154.3495)"><path style="stroke:none" d="M 62.953125 -59.546875 C 61.210938 -63.410156 58.617188 -66.648438 55.171875 -69.265625 C 51.722656 -71.878906 47.800781 -73.1875 43.40625 -73.1875 C 38.5625 -73.1875 34.28125 -71.6875 30.5625 -68.6875 C 26.851562 -65.695312 24.050781 -61.890625 22.15625 -57.265625 C 20.257812 -52.648438 19.3125 -47.726562 19.3125 -42.5 C 19.3125 -34.164062 21.582031 -27.082031 26.125 -21.25 C 30.675781 -15.414062 36.476562 -12.5 43.53125 -12.5 C 48.675781 -12.5 53.140625 -14.375 56.921875 -18.125 C 60.710938 -21.875 62.765625 -26.476562 63.078125 -31.9375 L 44.890625 -31.9375 L 44.890625 -45.5625 L 81.828125 -45.5625 L 81.828125 -43.1875 C 81.828125 -34.320312 80.269531 -26.457031 77.15625 -19.59375 C 74.050781 -12.738281 69.5625 -7.378906 63.6875 -3.515625 C 57.820312 0.335938 50.875 2.265625 42.84375 2.265625 C 34.96875 2.265625 27.898438 0.238281 21.640625 -3.8125 C 15.390625 -7.863281 10.5625 -13.296875 7.15625 -20.109375 C 3.75 -26.929688 2.046875 -34.394531 2.046875 -42.5 C 2.046875 -50.988281 3.804688 -58.660156 7.328125 -65.515625 C 10.847656 -72.367188 15.804688 -77.820312 22.203125 -81.875 C 28.609375 -85.925781 35.828125 -87.953125 43.859375 -87.953125 C 51.210938 -87.953125 57.820312 -86.207031 63.6875 -82.71875 C 69.5625 -79.238281 74.242188 -74.164062 77.734375 -67.5 Z M 62.953125 -59.546875 "/></g></g><g style="fill:#ff7400;fill-opacity:1;"><g transform="translate(372.0859, 154.3495)"><path style="stroke:none" d="M 63.40625 -62.953125 C 61.0625 -65.835938 58.203125 -68.070312 54.828125 -69.65625 C 51.460938 -71.25 48.035156 -72.046875 44.546875 -72.046875 C 37.273438 -72.046875 31.25 -69.164062 26.46875 -63.40625 C 21.695312 -57.65625 19.3125 -50.6875 19.3125 -42.5 C 19.3125 -34.46875 21.734375 -27.648438 26.578125 -22.046875 C 31.429688 -16.441406 37.382812 -13.640625 44.4375 -13.640625 C 48.070312 -13.640625 51.554688 -14.488281 54.890625 -16.1875 C 58.222656 -17.894531 61.0625 -20.078125 63.40625 -22.734375 L 63.40625 -2.84375 C 60.226562 -1.320312 57.066406 -0.09375 53.921875 0.84375 C 50.773438 1.789062 47.460938 2.265625 43.984375 2.265625 C 36.398438 2.265625 29.445312 0.335938 23.125 -3.515625 C 16.800781 -7.378906 11.707031 -12.796875 7.84375 -19.765625 C 3.976562 -26.742188 2.046875 -34.207031 2.046875 -42.15625 C 2.046875 -50.488281 3.898438 -58.195312 7.609375 -65.28125 C 11.328125 -72.363281 16.421875 -77.910156 22.890625 -81.921875 C 29.367188 -85.941406 36.507812 -87.953125 44.3125 -87.953125 C 47.726562 -87.953125 51.046875 -87.515625 54.265625 -86.640625 C 57.484375 -85.773438 60.53125 -84.546875 63.40625 -82.953125 Z M 63.40625 -62.953125 "/></g></g><g style="fill:#ff7400;fill-opacity:1;"><g transform="translate(439.701221, 154.3495)"><path style="stroke:none" d="M 2.046875 -42.953125 C 2.046875 -51.585938 3.84375 -59.3125 7.4375 -66.125 C 11.039062 -72.945312 16.082031 -78.289062 22.5625 -82.15625 C 29.039062 -86.019531 36.332031 -87.953125 44.4375 -87.953125 C 52.6875 -87.953125 60.066406 -85.960938 66.578125 -81.984375 C 73.097656 -78.015625 78.101562 -72.597656 81.59375 -65.734375 C 85.082031 -58.878906 86.828125 -51.285156 86.828125 -42.953125 C 86.828125 -34.242188 85.023438 -26.441406 81.421875 -19.546875 C 77.828125 -12.648438 72.828125 -7.289062 66.421875 -3.46875 C 60.015625 0.351562 52.6875 2.265625 44.4375 2.265625 C 36.332031 2.265625 29.078125 0.390625 22.671875 -3.359375 C 16.265625 -7.109375 11.222656 -12.46875 7.546875 -19.4375 C 3.878906 -26.40625 2.046875 -34.242188 2.046875 -42.953125 Z M 44.3125 -71.484375 C 37.195312 -71.484375 31.25 -68.753906 26.46875 -63.296875 C 21.695312 -57.835938 19.3125 -51.285156 19.3125 -43.640625 C 19.3125 -35.078125 21.566406 -28.03125 26.078125 -22.5 C 30.585938 -16.96875 36.707031 -14.203125 44.4375 -14.203125 C 52.164062 -14.203125 58.28125 -16.96875 62.78125 -22.5 C 67.289062 -28.03125 69.546875 -35.078125 69.546875 -43.640625 C 69.546875 -51.367188 67.160156 -57.941406 62.390625 -63.359375 C 57.617188 -68.773438 51.59375 -71.484375 44.3125 -71.484375 Z M 44.3125 -71.484375 "/></g></g><g style="fill:#ff7400;fill-opacity:1;"><g transform="translate(528.567076, 154.3495)"><path style="stroke:none" d="M 22.84375 -85.6875 L 22.84375 -14.546875 L 46.484375 -14.546875 L 46.484375 0 L 6.140625 0 L 6.140625 -85.6875 Z M 22.84375 -85.6875 "/></g></g><g style="fill:#ff7400;fill-opacity:1;"><g transform="translate(571.522689, 154.3495)"><path style="stroke:none" d="M 2.046875 -42.953125 C 2.046875 -51.585938 3.84375 -59.3125 7.4375 -66.125 C 11.039062 -72.945312 16.082031 -78.289062 22.5625 -82.15625 C 29.039062 -86.019531 36.332031 -87.953125 44.4375 -87.953125 C 52.6875 -87.953125 60.066406 -85.960938 66.578125 -81.984375 C 73.097656 -78.015625 78.101562 -72.597656 81.59375 -65.734375 C 85.082031 -58.878906 86.828125 -51.285156 86.828125 -42.953125 C 86.828125 -34.242188 85.023438 -26.441406 81.421875 -19.546875 C 77.828125 -12.648438 72.828125 -7.289062 66.421875 -3.46875 C 60.015625 0.351562 52.6875 2.265625 44.4375 2.265625 C 36.332031 2.265625 29.078125 0.390625 22.671875 -3.359375 C 16.265625 -7.109375 11.222656 -12.46875 7.546875 -19.4375 C 3.878906 -26.40625 2.046875 -34.242188 2.046875 -42.953125 Z M 44.3125 -71.484375 C 37.195312 -71.484375 31.25 -68.753906 26.46875 -63.296875 C 21.695312 -57.835938 19.3125 -51.285156 19.3125 -43.640625 C 19.3125 -35.078125 21.566406 -28.03125 26.078125 -22.5 C 30.585938 -16.96875 36.707031 -14.203125 44.4375 -14.203125 C 52.164062 -14.203125 58.28125 -16.96875 62.78125 -22.5 C 67.289062 -28.03125 69.546875 -35.078125 69.546875 -43.640625 C 69.546875 -51.367188 67.160156 -57.941406 62.390625 -63.359375 C 57.617188 -68.773438 51.59375 -71.484375 44.3125 -71.484375 Z M 44.3125 -71.484375 "/></g></g><g style="fill:#ff7400;fill-opacity:1;"><g transform="translate(660.388556, 154.3495)"><path style="stroke:none" d="M 29.203125 -85.6875 C 38.222656 -85.6875 45.175781 -83.46875 50.0625 -79.03125 C 54.945312 -74.601562 57.390625 -68.222656 57.390625 -59.890625 C 57.390625 -53.828125 55.738281 -48.539062 52.4375 -44.03125 C 49.144531 -39.53125 44.960938 -36.898438 39.890625 -36.140625 L 64.09375 0 L 43.859375 0 L 23.0625 -34.546875 L 22.84375 -34.546875 L 22.84375 0 L 6.140625 0 L 6.140625 -85.6875 Z M 22.84375 -46.25 L 24.65625 -46.25 C 30.414062 -46.25 34.523438 -47.304688 36.984375 -49.421875 C 39.453125 -51.546875 40.6875 -54.882812 40.6875 -59.4375 C 40.6875 -63.90625 39.472656 -67.125 37.046875 -69.09375 C 34.617188 -71.0625 30.566406 -72.046875 24.890625 -72.046875 L 22.84375 -72.046875 Z M 22.84375 -46.25 "/></g></g><g style="fill:#ff7400;fill-opacity:1;"><g transform="translate(723.799231, 154.3495)"><path style="stroke:none" d="M 46.484375 -66.828125 C 44.890625 -69.015625 43.050781 -70.734375 40.96875 -71.984375 C 38.882812 -73.234375 36.441406 -73.859375 33.640625 -73.859375 C 30.753906 -73.859375 28.289062 -72.910156 26.25 -71.015625 C 24.207031 -69.128906 23.1875 -66.859375 23.1875 -64.203125 C 23.1875 -61.785156 24.1875 -59.722656 26.1875 -58.015625 C 28.195312 -56.304688 31.171875 -54.695312 35.109375 -53.1875 C 41.929688 -50.382812 46.757812 -47.691406 49.59375 -45.109375 C 52.4375 -42.535156 54.40625 -39.769531 55.5 -36.8125 C 56.601562 -33.863281 57.15625 -30.609375 57.15625 -27.046875 C 57.15625 -18.335938 54.578125 -11.273438 49.421875 -5.859375 C 44.273438 -0.441406 37.460938 2.265625 28.984375 2.265625 C 23.066406 2.265625 17.929688 0.734375 13.578125 -2.328125 C 9.222656 -5.398438 5.566406 -9.4375 2.609375 -14.4375 L 13.40625 -25 C 14.695312 -21.363281 16.78125 -18.367188 19.65625 -16.015625 C 22.539062 -13.671875 25.609375 -12.5 28.859375 -12.5 C 32.046875 -12.5 34.679688 -13.65625 36.765625 -15.96875 C 38.847656 -18.28125 39.890625 -21.253906 39.890625 -24.890625 C 39.890625 -28.066406 38.90625 -30.601562 36.9375 -32.5 C 34.96875 -34.394531 32.050781 -36.097656 28.1875 -37.609375 C 19.625 -40.867188 13.769531 -44.316406 10.625 -47.953125 C 7.476562 -51.585938 5.90625 -56.363281 5.90625 -62.28125 C 5.90625 -66.820312 6.960938 -71.0625 9.078125 -75 C 11.203125 -78.9375 14.195312 -82.078125 18.0625 -84.421875 C 21.925781 -86.773438 26.207031 -87.953125 30.90625 -87.953125 C 35.070312 -87.953125 39.445312 -87.003906 44.03125 -85.109375 C 48.613281 -83.222656 52.039062 -80.988281 54.3125 -78.40625 Z M 46.484375 -66.828125 "/></g></g></g></svg>